<svg id="visual" viewBox="0 0 960 540" width="960" height="540" xmlns="http://www.w3.org/2000/svg" xmlns:xlink="http://www.w3.org/1999/xlink" version="1.1"><rect width="960" height="540" fill="#001829"></rect><g><g transform="translate(656 82)"><path d="M0 -81.3L70.4 -40.7L70.4 40.7L0 81.3L-70.4 40.7L-70.4 -40.7Z" fill="#297EA6"></path></g><g transform="translate(188 463)"><path d="M0 -39L33.8 -19.5L33.8 19.5L0 39L-33.8 19.5L-33.8 -19.5Z" fill="#297EA6"></path></g><g transform="translate(763 495)"><path d="M0 -69L59.8 -34.5L59.8 34.5L0 69L-59.8 34.5L-59.8 -34.5Z" fill="#297EA6"></path></g><g transform="translate(57 75)"><path d="M0 -39L33.8 -19.5L33.8 19.5L0 39L-33.8 19.5L-33.8 -19.5Z" fill="#297EA6"></path></g></g></svg>