<svg id="visual" viewBox="0 0 900 300" width="900" height="300" xmlns="http://www.w3.org/2000/svg" xmlns:xlink="http://www.w3.org/1999/xlink" version="1.1"><rect x="0" y="0" width="900" height="300" fill="#4682A9"></rect><path d="M0 192L25 184.7C50 177.3 100 162.7 150 163.2C200 163.7 250 179.3 300 190.7C350 202 400 209 450 204.7C500 200.3 550 184.7 600 173.7C650 162.7 700 156.3 750 155.7C800 155 850 160 875 162.5L900 165L900 0L875 0C850 0 800 0 750 0C700 0 650 0 600 0C550 0 500 0 450 0C400 0 350 0 300 0C250 0 200 0 150 0C100 0 50 0 25 0L0 0Z" fill="#7ab2b2"></path><path d="M0 108L25 112.2C50 116.3 100 124.7 150 128.5C200 132.3 250 131.7 300 127.5C350 123.3 400 115.7 450 122.3C500 129 550 150 600 150C650 150 700 129 750 131.2C800 133.3 850 158.7 875 171.3L900 184L900 0L875 0C850 0 800 0 750 0C700 0 650 0 600 0C550 0 500 0 450 0C400 0 350 0 300 0C250 0 200 0 150 0C100 0 50 0 25 0L0 0Z" fill="#96c4c2"></path><path d="M0 98L25 94.5C50 91 100 84 150 84.5C200 85 250 93 300 96C350 99 400 97 450 90.8C500 84.7 550 74.3 600 71.2C650 68 700 72 750 73.2C800 74.3 850 72.7 875 71.8L900 71L900 0L875 0C850 0 800 0 750 0C700 0 650 0 600 0C550 0 500 0 450 0C400 0 350 0 300 0C250 0 200 0 150 0C100 0 50 0 25 0L0 0Z" fill="#b2d6d3"></path><path d="M0 81L25 68.3C50 55.7 100 30.3 150 21.2C200 12 250 19 300 32.3C350 45.7 400 65.3 450 69.8C500 74.3 550 63.7 600 53.7C650 43.7 700 34.3 750 31.7C800 29 850 33 875 35L900 37L900 0L875 0C850 0 800 0 750 0C700 0 650 0 600 0C550 0 500 0 450 0C400 0 350 0 300 0C250 0 200 0 150 0C100 0 50 0 25 0L0 0Z" fill="#cde8e5"></path></svg>