<svg id="visual" viewBox="0 0 960 540" width="960" height="540" xmlns="http://www.w3.org/2000/svg" xmlns:xlink="http://www.w3.org/1999/xlink" version="1.1"><path d="M0 114L32 115.8C64 117.7 128 121.3 192 130.3C256 139.3 320 153.7 384 169.8C448 186 512 204 576 208.5C640 213 704 204 768 183.3C832 162.7 896 130.3 928 114.2L960 98L960 0L928 0C896 0 832 0 768 0C704 0 640 0 576 0C512 0 448 0 384 0C320 0 256 0 192 0C128 0 64 0 32 0L0 0Z" fill="#e3efe6"></path><path d="M0 271L32 255.7C64 240.3 128 209.7 192 216.8C256 224 320 269 384 297C448 325 512 336 576 319C640 302 704 257 768 226.3C832 195.7 896 179.3 928 171.2L960 163L960 96L928 112.2C896 128.3 832 160.7 768 181.3C704 202 640 211 576 206.5C512 202 448 184 384 167.8C320 151.7 256 137.3 192 128.3C128 119.3 64 115.7 32 113.8L0 112Z" fill="#d8e8db"></path><path d="M0 363L32 343.2C64 323.3 128 283.7 192 282.7C256 281.7 320 319.3 384 355.3C448 391.3 512 425.7 576 439.2C640 452.7 704 445.3 768 425.5C832 405.7 896 373.3 928 357.2L960 341L960 161L928 169.2C896 177.3 832 193.7 768 224.3C704 255 640 300 576 317C512 334 448 323 384 295C320 267 256 222 192 214.8C128 207.7 64 238.3 32 253.7L0 269Z" fill="#cce0cf"></path><path d="M0 541L32 541C64 541 128 541 192 541C256 541 320 541 384 541C448 541 512 541 576 541C640 541 704 541 768 541C832 541 896 541 928 541L960 541L960 339L928 355.2C896 371.3 832 403.7 768 423.5C704 443.3 640 450.7 576 437.2C512 423.7 448 389.3 384 353.3C320 317.3 256 279.7 192 280.7C128 281.7 64 321.3 32 341.2L0 361Z" fill="#c1d8c3"></path></svg>