<svg id="visual" viewBox="0 0 900 300" width="900" height="300" xmlns="http://www.w3.org/2000/svg" xmlns:xlink="http://www.w3.org/1999/xlink" version="1.1"><path d="M0 106L25 113.3C50 120.7 100 135.3 150 134.8C200 134.3 250 118.7 300 107.3C350 96 400 89 450 93.3C500 97.7 550 113.3 600 124.3C650 135.3 700 141.7 750 142.3C800 143 850 138 875 135.5L900 133L900 301L875 301C850 301 800 301 750 301C700 301 650 301 600 301C550 301 500 301 450 301C400 301 350 301 300 301C250 301 200 301 150 301C100 301 50 301 25 301L0 301Z" fill="#7ab2b2"></path><path d="M0 190L25 185.8C50 181.7 100 173.3 150 169.5C200 165.7 250 166.3 300 170.5C350 174.7 400 182.3 450 175.7C500 169 550 148 600 148C650 148 700 169 750 166.8C800 164.7 850 139.3 875 126.7L900 114L900 301L875 301C850 301 800 301 750 301C700 301 650 301 600 301C550 301 500 301 450 301C400 301 350 301 300 301C250 301 200 301 150 301C100 301 50 301 25 301L0 301Z" fill="#96c4c2"></path><path d="M0 200L25 203.5C50 207 100 214 150 213.5C200 213 250 205 300 202C350 199 400 201 450 207.2C500 213.3 550 223.7 600 226.8C650 230 700 226 750 224.8C800 223.7 850 225.3 875 226.2L900 227L900 301L875 301C850 301 800 301 750 301C700 301 650 301 600 301C550 301 500 301 450 301C400 301 350 301 300 301C250 301 200 301 150 301C100 301 50 301 25 301L0 301Z" fill="#b2d6d3"></path><path d="M0 217L25 229.7C50 242.3 100 267.7 150 276.8C200 286 250 279 300 265.7C350 252.3 400 232.7 450 228.2C500 223.7 550 234.3 600 244.3C650 254.3 700 263.7 750 266.3C800 269 850 265 875 263L900 261L900 301L875 301C850 301 800 301 750 301C700 301 650 301 600 301C550 301 500 301 450 301C400 301 350 301 300 301C250 301 200 301 150 301C100 301 50 301 25 301L0 301Z" fill="#cde8e5"></path></svg>