<svg id="visual" viewBox="0 0 1000 600" width="1000" height="600" xmlns="http://www.w3.org/2000/svg" xmlns:xlink="http://www.w3.org/1999/xlink" version="1.1"><path d="M0 144L27.8 138.5C55.7 133 111.3 122 166.8 122.3C222.3 122.7 277.7 134.3 333.2 142.8C388.7 151.3 444.3 156.7 500 153.5C555.7 150.3 611.3 138.7 666.8 130.3C722.3 122 777.7 117 833.2 116.3C888.7 115.7 944.3 119.3 972.2 121.2L1000 123L1000 0L972.2 0C944.3 0 888.7 0 833.2 0C777.7 0 722.3 0 666.8 0C611.3 0 555.7 0 500 0C444.3 0 388.7 0 333.2 0C277.7 0 222.3 0 166.8 0C111.3 0 55.7 0 27.8 0L0 0Z" fill="#7ab2b2"></path><path d="M0 81L27.8 84.2C55.7 87.3 111.3 93.7 166.8 96.5C222.3 99.3 277.7 98.7 333.2 95.5C388.7 92.3 444.3 86.7 500 91.7C555.7 96.7 611.3 112.3 666.8 112.2C722.3 112 777.7 96 833.2 97.7C888.7 99.3 944.3 118.7 972.2 128.3L1000 138L1000 0L972.2 0C944.3 0 888.7 0 833.2 0C777.7 0 722.3 0 666.8 0C611.3 0 555.7 0 500 0C444.3 0 388.7 0 333.2 0C277.7 0 222.3 0 166.8 0C111.3 0 55.7 0 27.8 0L0 0Z" fill="#96c4c2"></path><path d="M0 73L27.8 70.5C55.7 68 111.3 63 166.8 63.3C222.3 63.7 277.7 69.3 333.2 71.5C388.7 73.7 444.3 72.3 500 67.8C555.7 63.3 611.3 55.7 666.8 53.3C722.3 51 777.7 54 833.2 54.8C888.7 55.7 944.3 54.3 972.2 53.7L1000 53L1000 0L972.2 0C944.3 0 888.7 0 833.2 0C777.7 0 722.3 0 666.8 0C611.3 0 555.7 0 500 0C444.3 0 388.7 0 333.2 0C277.7 0 222.3 0 166.8 0C111.3 0 55.7 0 27.8 0L0 0Z" fill="#b2d6d3"></path><path d="M0 60L27.8 50.5C55.7 41 111.3 22 166.8 15.2C222.3 8.3 277.7 13.7 333.2 23.8C388.7 34 444.3 49 500 52.3C555.7 55.7 611.3 47.3 666.8 39.7C722.3 32 777.7 25 833.2 23C888.7 21 944.3 24 972.2 25.5L1000 27L1000 0L972.2 0C944.3 0 888.7 0 833.2 0C777.7 0 722.3 0 666.8 0C611.3 0 555.7 0 500 0C444.3 0 388.7 0 333.2 0C277.7 0 222.3 0 166.8 0C111.3 0 55.7 0 27.8 0L0 0Z" fill="#cde8e5"></path></svg>