<svg id="visual" viewBox="0 0 960 540" width="960" height="540" xmlns="http://www.w3.org/2000/svg" xmlns:xlink="http://www.w3.org/1999/xlink" version="1.1"><path d="M0 98L32 123.2C64 148.3 128 198.7 192 201.3C256 204 320 159 384 154.5C448 150 512 186 576 221.2C640 256.3 704 290.7 768 288C832 285.3 896 245.7 928 225.8L960 206L960 0L928 0C896 0 832 0 768 0C704 0 640 0 576 0C512 0 448 0 384 0C320 0 256 0 192 0C128 0 64 0 32 0L0 0Z" fill="#021120"></path><path d="M0 147L32 177.5C64 208 128 269 192 296.8C256 324.7 320 319.3 384 305C448 290.7 512 267.3 576 289.8C640 312.3 704 380.7 768 386C832 391.3 896 333.7 928 304.8L960 276L960 204L928 223.8C896 243.7 832 283.3 768 286C704 288.7 640 254.3 576 219.2C512 184 448 148 384 152.5C320 157 256 202 192 199.3C128 196.7 64 146.3 32 121.2L0 96Z" fill="#0c4650"></path><path d="M0 217L32 256.7C64 296.3 128 375.7 192 398.2C256 420.7 320 386.3 384 361C448 335.7 512 319.3 576 342.7C640 366 704 429 768 444.3C832 459.7 896 427.3 928 411.2L960 395L960 274L928 302.8C896 331.7 832 389.3 768 384C704 378.7 640 310.3 576 287.8C512 265.3 448 288.7 384 303C320 317.3 256 322.7 192 294.8C128 267 64 206 32 175.5L0 145Z" fill="#477e6b"></path><path d="M0 541L32 541C64 541 128 541 192 541C256 541 320 541 384 541C448 541 512 541 576 541C640 541 704 541 768 541C832 541 896 541 928 541L960 541L960 393L928 409.2C896 425.3 832 457.7 768 442.3C704 427 640 364 576 340.7C512 317.3 448 333.7 384 359C320 384.3 256 418.7 192 396.2C128 373.7 64 294.3 32 254.7L0 215Z" fill="#a6b37d"></path></svg>