<?xml version="1.0" standalone="no"?>
<!DOCTYPE svg PUBLIC "-//W3C//DTD SVG 20010904//EN"
 "http://www.w3.org/TR/2001/REC-SVG-20010904/DTD/svg10.dtd">
<svg version="1.0" xmlns="http://www.w3.org/2000/svg"
 width="400.000000pt" height="400.000000pt" viewBox="0 0 400.000000 400.000000"
 preserveAspectRatio="xMidYMid meet">

<g transform="translate(0.000000,400.000000) scale(0.100000,-0.100000)"
fill="#000000" stroke="none">
<path d="M1272 3483 c-41 -20 -82 -88 -82 -136 l0 -37 668 0 c599 0 674 -2
718 -17 40 -13 67 -35 144 -117 52 -55 141 -148 197 -207 156 -164 143 -59
143 -1145 0 -494 4 -905 9 -912 6 -10 18 -11 51 -3 55 12 90 38 112 82 17 32
18 111 18 1219 0 1165 0 1186 -20 1218 -11 18 -34 41 -52 52 -32 20 -52 20
-953 20 -828 0 -923 -2 -953 -17z"/>
<path d="M1955 2698 c-13 -57 -165 -896 -165 -914 0 -12 13 -14 72 -12 l72 3
83 455 c45 250 82 463 83 473 0 15 -10 17 -70 17 -64 0 -70 -2 -75 -22z"/>
<path d="M1428 2473 l-237 -138 -1 -95 0 -95 231 -135 c127 -74 240 -136 250
-138 19 -3 19 3 17 114 l-3 117 -90 50 c-84 46 -104 62 -105 79 0 15 42 45
120 87 l80 42 0 109 c0 105 -5 140 -19 140 -4 0 -113 -62 -243 -137z"/>
<path d="M2206 2588 c-8 -30 -8 -192 0 -213 4 -9 43 -34 88 -57 88 -44 136
-75 136 -87 0 -5 -49 -35 -110 -67 l-110 -59 0 -123 c0 -119 1 -122 20 -112
42 22 446 263 458 272 8 7 12 41 12 102 l0 91 -236 135 c-129 74 -239 136
-243 138 -5 2 -11 -7 -15 -20z"/>
<path d="M841 2414 c0 -11 3 -14 6 -6 3 7 2 16 -1 19 -3 4 -6 -2 -5 -13z"/>
<path d="M842 1993 l-2 -332 -87 -26 c-49 -14 -97 -29 -108 -32 -11 -3 -30
-15 -42 -26 l-23 -20 0 -364 0 -364 25 -23 c31 -29 95 -46 173 -46 l59 0 5
-79 c4 -68 9 -85 33 -116 51 -68 14 -65 861 -65 422 0 764 3 761 7 -4 3 -354
10 -779 14 -730 8 -774 10 -798 27 -50 37 -70 80 -70 148 l0 64 856 0 c855 0
856 0 894 21 21 12 43 33 49 46 14 30 28 574 17 645 -9 59 -45 104 -94 118
-65 20 -438 23 -1079 10 -343 -7 -627 -9 -631 -5 -4 4 -9 169 -12 368 l-5 362
-3 -332z m178 -703 l0 -70 55 0 54 0 3 68 3 67 46 3 46 3 6 -188 c3 -103 2
-191 -2 -194 -3 -3 -25 -4 -48 -1 l-43 4 0 74 0 74 -60 0 -60 0 0 -79 0 -80
-37 5 c-21 3 -44 7 -50 10 -10 2 -13 49 -13 189 l0 185 50 0 50 0 0 -70z m580
25 l0 -45 -50 0 -50 0 0 -151 0 -151 -22 6 c-13 3 -35 6 -50 6 l-28 0 0 145 0
145 -49 0 c-53 0 -61 8 -61 61 l0 29 155 0 155 0 0 -45z m216 -44 c13 -46 25
-89 27 -95 4 -10 20 38 47 142 l11 42 64 0 65 0 0 -196 0 -196 -31 6 c-17 3
-38 6 -45 6 -11 0 -14 18 -14 77 0 42 -3 74 -6 71 -3 -4 -14 -39 -24 -78 -10
-39 -20 -73 -22 -75 -2 -2 -22 -1 -44 2 l-41 5 -18 69 c-9 38 -21 72 -26 75
-5 3 -9 -31 -9 -76 l0 -81 -37 7 c-21 4 -41 9 -45 11 -5 2 -8 87 -8 189 l0
185 67 -3 67 -3 22 -84z m396 -58 l3 -148 85 -3 c52 -2 87 -8 92 -15 11 -17
10 -65 -2 -72 -6 -3 -69 -3 -140 1 l-130 7 0 188 0 189 45 0 44 0 3 -147z"/>
</g>
</svg>
